<svg width="21" height="21" viewBox="0 0 21 21" fill="none" xmlns="http://www.w3.org/2000/svg">
<path fill-rule="evenodd" clip-rule="evenodd" d="M9.49354 1.34964L10.4845 0.332924C10.9041 -0.0975761 11.5826 -0.0975761 11.9977 0.332924L20.6753 9.23148C21.0949 9.66198 21.0949 10.3581 20.6753 10.784L11.9977 19.6872C11.5781 20.1177 10.8996 20.1177 10.4845 19.6872L9.49354 18.6705C9.06948 18.2354 9.07841 17.5255 9.5114 17.0996L14.8903 11.842L2.06135 11.842C1.46766 11.842 0.990038 11.3519 0.990038 10.7428V9.27728C0.990038 8.66817 1.46766 8.17813 2.06135 8.17813L14.8903 8.17813L9.5114 2.92052C9.07396 2.4946 9.06502 1.78473 9.49354 1.34965V1.34964Z" fill="#3C72FC"/>
</svg>
