<svg width="34" height="28" viewBox="0 0 34 28" fill="none" xmlns="http://www.w3.org/2000/svg">
<path fill-rule="evenodd" clip-rule="evenodd" d="M34 3.69922C32.7766 4.24063 31.4688 4.60625 30.0906 4.775C31.4969 3.93125 32.5797 2.59531 33.086 1.00625C31.7711 1.78672 30.3156 2.35625 28.7617 2.65859C27.5171 1.32968 25.7452 0.5 23.7905 0.5C20.0288 0.5 16.9842 3.55156 16.9842 7.31328C16.9842 7.84766 17.0404 8.36797 17.16 8.86719C11.4997 8.58594 6.47935 5.87188 3.12539 1.74453C2.54179 2.75 2.20429 3.92422 2.20429 5.16875C2.20429 7.53125 3.41369 9.61953 5.24183 10.843C4.11682 10.8149 3.06211 10.5055 2.14804 9.99219C2.14804 10.0203 2.14804 10.0484 2.14804 10.0766C2.14804 13.3813 4.49651 16.1305 7.6114 16.7563C7.04186 16.911 6.43716 16.9953 5.8184 16.9953C5.38245 16.9953 4.95355 16.9531 4.53869 16.8688C5.40354 19.5758 7.92077 21.5445 10.9021 21.6008C8.57469 23.4289 5.63558 24.5188 2.44335 24.5188C1.89491 24.5188 1.3535 24.4836 0.81911 24.4203C3.82149 26.375 7.40045 27.5 11.2396 27.5C23.7765 27.5 30.625 17.1149 30.625 8.10782C30.625 7.81251 30.618 7.5172 30.6039 7.22891C31.9328 6.26563 33.086 5.07032 34 3.69922Z" fill="white"/>
</svg>
