<svg width="71" height="56" viewBox="0 0 71 56" fill="none" xmlns="http://www.w3.org/2000/svg">
<path fill-rule="evenodd" clip-rule="evenodd" d="M70.5953 30.226V43.4627C70.5953 43.7844 70.4919 44.0487 70.2851 44.2555C70.0782 44.4623 69.814 44.5657 69.4922 44.5657H66.1831V48.978C66.1831 50.8164 65.5396 52.379 64.2528 53.6659C62.9659 54.9528 61.4032 55.5963 59.5648 55.5963C57.7264 55.5963 56.1638 54.9528 54.8769 53.6659C53.59 52.379 52.9465 50.8164 52.9465 48.978V44.5657H17.6489V48.978C17.6489 50.8164 17.0054 52.379 15.7185 53.6659C14.4316 54.9528 12.869 55.5963 11.0306 55.5963C9.19216 55.5963 7.62951 54.9528 6.34262 53.6659C5.05573 52.379 4.41228 50.8164 4.41228 48.978V44.5657H1.10313C0.781411 44.5657 0.517131 44.4623 0.310301 44.2555C0.103471 44.0487 6.10352e-05 43.7844 6.10352e-05 43.4627V30.226C6.10352e-05 28.0889 0.752671 26.2677 2.25789 24.7625C3.76311 23.2573 5.58429 22.5047 7.72142 22.5047H8.68659L12.306 8.06156C12.8345 5.90143 14.0295 4.09173 15.8909 2.63248C17.7523 1.17322 19.8091 0.443594 22.0611 0.443604H48.5344C50.7864 0.443604 52.8432 1.17323 54.7046 2.63248C56.566 4.09174 57.761 5.90143 58.2895 8.06156L61.9089 22.5047H62.8741C65.0112 22.5047 66.8324 23.2573 68.3376 24.7625C69.8428 26.2677 70.5954 28.0889 70.5954 30.226H70.5953ZM65.08 33.5352C65.08 32.0185 64.54 30.7201 63.4599 29.64C62.3799 28.56 61.0815 28.0199 59.5648 28.0199C58.0481 28.0199 56.7497 28.56 55.6697 29.64C54.5896 30.7201 54.0496 32.0185 54.0496 33.5352C54.0496 35.0519 54.5896 36.3502 55.6697 37.4303C56.7497 38.5104 58.0481 39.0504 59.5648 39.0504C61.0815 39.0504 62.3798 38.5104 63.4599 37.4303C64.54 36.3502 65.08 35.0519 65.08 33.5352ZM17.7867 22.5047H52.8085L49.7407 10.1988C49.6947 10.0149 49.5339 9.81385 49.2581 9.59552C48.9823 9.37719 48.741 9.26802 48.5342 9.26802H22.061C21.8542 9.26802 21.6129 9.37719 21.3371 9.59552C21.0613 9.81385 20.9005 10.0149 20.8545 10.1988L17.7867 22.5047ZM16.5458 33.5352C16.5458 32.0185 16.0057 30.7201 14.9257 29.64C13.8456 28.56 12.5472 28.0199 11.0305 28.0199C9.51386 28.0199 8.21548 28.56 7.13542 29.64C6.05535 30.7201 5.51532 32.0185 5.51532 33.5352C5.51532 35.0519 6.05535 36.3502 7.13542 37.4303C8.21548 38.5104 9.51386 39.0504 11.0305 39.0504C12.5472 39.0504 13.8456 38.5104 14.9257 37.4303C16.0057 36.3502 16.5458 35.0519 16.5458 33.5352Z" fill="white"/>
</svg>
