<svg width="28" height="28" viewBox="0 0 28 28" fill="none" xmlns="http://www.w3.org/2000/svg">
<path fill-rule="evenodd" clip-rule="evenodd" d="M22.5234 23.007H18.6563V16.4328C18.6563 14.8578 18.0938 13.782 16.6945 13.782C15.6258 13.782 14.993 14.5062 14.7117 15.2094C14.6063 15.4625 14.5781 15.807 14.5781 16.1586V23.007H10.7109V10.9836H14.5781V12.657C15.1406 11.8555 16.0195 10.7023 18.0656 10.7023C20.6039 10.7023 22.5234 12.3758 22.5234 15.9828V23.007ZM6.59063 9.15545H6.56251C5.32501 9.15545 4.52345 8.23436 4.52345 7.08123C4.52345 5.90701 5.34611 5.00701 6.61173 5.00701C7.87736 5.00701 8.65079 5.89998 8.67892 7.08123C8.67892 8.23435 7.87736 9.15545 6.59064 9.15545H6.59063ZM8.39064 23.007H4.52345V10.9836H8.39064V23.007ZM24.8578 0.507019H2.32969C1.09922 0.507019 0.0234375 1.39296 0.0234375 2.60936V25.1867C0.0234375 26.4101 1.09922 27.5 2.32969 27.5H24.8508C26.0883 27.5 27.0164 26.4031 27.0164 25.1867V2.60936C27.0234 1.39295 26.0883 0.507019 24.8578 0.507019H24.8578Z" fill="white"/>
</svg>
