<svg width="474" height="432" viewBox="0 0 474 432" fill="none" xmlns="http://www.w3.org/2000/svg">
<path fill-rule="evenodd" clip-rule="evenodd" d="M6.22834 238.631C-8.6393 192.922 8.0309 141.816 34.544 100.866C61.5139 59.2111 104.032 27.4924 152.945 12.0263C200.454 -2.99566 254.948 -4.69097 299.147 17.2004C339.862 37.3663 345.813 88.7266 375.225 122.12C405.349 156.321 464.993 170.167 472.648 214.187C480.317 258.295 437.903 294.683 411.735 332.087C385.807 369.148 367.137 420.037 321.497 430.238C275.886 440.432 236.91 400.555 195.321 380.456C163.722 365.185 135.934 347.974 108.139 327.127C71.0982 299.345 20.1508 281.435 6.22835 238.631" fill="#FDD2BF" fill-opacity="0.15"/>
</svg>
